<svg width="16" height="16" viewBox="0 0 16 16" fill="none" xmlns="http://www.w3.org/2000/svg">
<g clip-path="url(#clip0_22_6)">
<path fill-rule="evenodd" clip-rule="evenodd" d="M10.6517 9.9875C10.835 10.1703 10.835 10.4703 10.6517 10.6531C10.4689 10.836 10.1717 10.836 9.98844 10.6531L8.0028 8.66565L6.00312 10.6672C5.81843 10.85 5.51939 10.85 5.3347 10.6672C5.15048 10.4797 5.15048 10.1797 5.3347 9.99688L7.33438 7.99531L5.34875 6.0125C5.16547 5.82969 5.16547 5.52967 5.34875 5.34686C5.53109 5.16405 5.82828 5.16405 6.01156 5.34686L7.9972 7.33435L10.0119 5.31876C10.1966 5.13595 10.4951 5.13595 10.6798 5.31876C10.8641 5.50626 10.8641 5.80154 10.6798 5.98904L8.66562 8.00469L10.6517 9.9875ZM8 0.5C3.85766 0.5 0.5 3.85625 0.5 8C0.5 12.1438 3.85766 15.5 8 15.5C12.1423 15.5 15.5 12.1438 15.5 8C15.5 3.85625 12.1423 0.5 8 0.5Z" fill="#FC4646"/>
</g>
<defs>
<clipPath id="clip0_22_6">
<rect width="15" height="15" fill="white" transform="translate(0.5 0.5)"/>
</clipPath>
</defs>
</svg>
