<svg width="14" height="14" viewBox="0 0 14 14" fill="none" xmlns="http://www.w3.org/2000/svg">
<g clip-path="url(#clip0_22_6)">
<path fill-rule="evenodd" clip-rule="evenodd" d="M9.5 9C9.65884 9.15844 9.65884 9.41846 9.5 9.57689C9.34156 9.73533 9.08401 9.73533 8.92516 9.57689L7.00243 7.57689L5.0793 9.57689C4.91924 9.73533 4.66006 9.73533 4.5 9.57689C4.34034 9.41439 4.34034 9.15442 4.5 8.99598L6.42313 6.99593L4.42556 5.07689C4.26672 4.91846 4.26672 4.65844 4.42556 4.5C4.58359 4.34156 4.84116 4.34156 5 4.5L6.99757 6.42311L9 4.5C9.16006 4.34156 9.41884 4.34156 9.5789 4.5C9.73856 4.6625 9.73856 4.91841 9.5789 5.08091L7.57687 7.00407L9.5 9ZM7 0.5C3.40997 0.5 0.5 3.40875 0.5 7C0.5 10.5912 3.40997 13.5 7 13.5C10.59 13.5 13.5 10.5912 13.5 7C13.5 3.40875 10.59 0.5 7 0.5Z" fill="#FC4646"/>
</g>
<defs>
<clipPath id="clip0_22_6">
<rect width="13" height="13" fill="white" transform="translate(0.5 0.5)"/>
</clipPath>
</defs>
</svg>
